# xmcd
#
# Track frame offsets:
#	150
#	21855
#	37990
#	53011
#	72547
#	89839
#	105690
#	122489
#	141700
#	164769
#	195377
#	237300
#
# Disc length: 3178 seconds
#
# Revision: 1
# Processed by: cddbd v1.5.2PL0 Copyright (c) Steve Scherf et al.
# Submitted via: audiograbber 1.83.01
#
DISCID=b00c680c
DTITLE=Blue Thumb - Roots
DYEAR=2013
DGENRE=Blues
TTITLE0=Eyes on the prize
TTITLE1=Hide nor haii
TTITLE2=Ocean Breeze Motel
TTITLE3=Hum Drum Blues
TTITLE4=One for my Baby
TTITLE5=Mess around
TTITLE6=Home
TTITLE7=Every shut eye ain't sleep
TTITLE8=The feeeling music brings
TTITLE9=It's too late
TTITLE10=Still got the Blues
TTITLE11="Das fang wa ma noch ma an"
EXTD=
EXTT0=
EXTT1=
EXTT2=
EXTT3=
EXTT4=
EXTT5=
EXTT6=
EXTT7=
EXTT8=
EXTT9=
EXTT10=
EXTT11=
PLAYORDER=
